# xmcd
#
# Track frame offsets:
# 150
# 16515
# 33547
# 47587
# 63127
# 78942
# 95767
# 111650
# 126885
# 141957
# 157777
# 174995
# 190350
# 207020
#
# Disc length: 2984 seconds
#
#
# Revision: 2
# Processed by: cddbd v1.5.2PL0 Copyright (c) Steve Scherf et al.
# Submitted via: FreeRIP 2.951 
#
DISCID=b30ba60e
DTITLE=Various Artist - Maximum Dance 98-10
DYEAR=1998
DGENRE=Dance
TTITLE0=DJ Sakin and Friends - Protect Your Mind (Braveheart)
TTITLE1=Beam and Yanou - Paraiso
TTITLE2=Bellini - Me Gusta La Vida
TTITLE3=Caught In The Act - Hold On
TTITLE4=Sash! Feat. Tina Cousins - Mysterious Times
TTITLE5=Koala - Planet Blue
TTITLE6=Fiocco - The Spirit
TTITLE7=Miss Shiva - My Secrets
TTITLE8=Perpetual Motion - Keep On Dancin' (Let's Go)
TTITLE9=Yves Deruyter - To The Rhythm
TTITLE10=DJ Visage - Formula '98
TTITLE11=Dj Phantasma - Revolution
TTITLE12=Storm - Storm
TTITLE13=Lovestation - Teardrops
EXTD=
EXTT0=
EXTT1=
EXTT2=
EXTT3=
EXTT4=
EXTT5=
EXTT6=
EXTT7=
EXTT8=
EXTT9=
EXTT10=
EXTT11=
EXTT12=
EXTT13=
PLAYORDER=
